<?xml version="1.0" encoding="UTF-8" standalone="no"?>
<!-- Created with Inkscape (http://www.inkscape.org/) -->

<svg
   width="50.859032mm"
   height="50.606899mm"
   viewBox="0 0 50.859032 50.606899"
   version="1.1"
   id="svg1"
   xmlns="http://www.w3.org/2000/svg"
   xmlns:svg="http://www.w3.org/2000/svg">
  <defs
     id="defs1" />
  <g
     id="layer1"
     transform="translate(-29.750098,-89.750104)">
    <g
       id="g1">
      <ellipse
         style="fill:none;stroke:#000504;stroke-width:1;stroke-linecap:round;stroke-linejoin:round;stroke-dasharray:none;stroke-dashoffset:0;stroke-opacity:1"
         id="path9-1"
         cx="39.635826"
         cy="130.35464"
         rx="9.3857279"
         ry="9.2940483" />
      <circle
         style="fill:none;stroke:#000504;stroke-width:1;stroke-linecap:round;stroke-linejoin:round;stroke-dasharray:none;stroke-dashoffset:0;stroke-opacity:1"
         id="path9-2-2"
         cx="70.860992"
         cy="130.60886"
         r="9.2481394" />
      <path
         d="m 55.009646,90.250098 a 24.758022,24.75815 0 0 0 -24.758015,24.758142 24.758022,24.75815 0 0 0 1.994467,9.63325 9.443297,9.3511034 0 0 1 7.434838,-3.60275 9.443297,9.3511034 0 0 1 9.44336,9.35108 9.443297,9.3511034 0 0 1 -3.69896,7.40029 24.758022,24.75815 0 0 0 9.58431,1.97627 24.758022,24.75815 0 0 0 9.89691,-2.09252 9.3048639,9.3049129 0 0 1 -3.31406,-7.0856 9.3048639,9.3049129 0 0 1 9.30474,-9.3048 9.3048639,9.3049129 0 0 1 6.95918,3.13593 24.758022,24.75815 0 0 0 1.9115,-9.41115 24.758022,24.75815 0 0 0 -24.75827,-24.758142 z"
         style="fill:none;stroke:#000504;stroke-width:1;stroke-linecap:round;stroke-linejoin:round;stroke-dasharray:none"
         id="path16" />
    </g>
  </g>
</svg>
