<?xml version="1.0" encoding="UTF-8" standalone="no"?>
<!-- Created with Inkscape (http://www.inkscape.org/) -->

<svg
   width="125.10918mm"
   height="73.784195mm"
   viewBox="0 0 125.10918 73.784195"
   version="1.1"
   id="svg1"
   xmlns="http://www.w3.org/2000/svg"
   xmlns:svg="http://www.w3.org/2000/svg">
  <defs
     id="defs1" />
  <g
     id="layer1"
     transform="translate(-40.000001,-200.00001)">
    <g
       id="g2"
       transform="translate(49.391413,-65.074482)">
      <ellipse
         style="fill:none;stroke:#f5f5f5;stroke-width:2;stroke-linecap:round;stroke-linejoin:round;stroke-dasharray:none;stroke-dashoffset:0;stroke-opacity:1"
         id="path9-1-6"
         cx="36.294312"
         cy="306.17902"
         rx="9.3857279"
         ry="9.2940483" />
      <circle
         style="fill:none;stroke:#f5f5f5;stroke-width:2;stroke-linecap:round;stroke-linejoin:round;stroke-dasharray:none;stroke-dashoffset:0;stroke-opacity:1"
         id="path9-2-2-26"
         cx="67.519478"
         cy="306.43323"
         r="9.2481394" />
      <path
         d="m 51.668134,266.07448 a 24.758022,24.75815 0 0 0 -24.758015,24.75814 24.758022,24.75815 0 0 0 1.994467,9.63325 9.443297,9.3511034 0 0 1 7.434838,-3.60275 9.443297,9.3511034 0 0 1 9.44336,9.35108 9.443297,9.3511034 0 0 1 -3.69896,7.40029 24.758022,24.75815 0 0 0 9.58431,1.97627 24.758022,24.75815 0 0 0 9.89691,-2.09252 9.3048639,9.3049129 0 0 1 -3.31406,-7.0856 9.3048639,9.3049129 0 0 1 9.30474,-9.3048 9.3048639,9.3049129 0 0 1 6.959176,3.13593 24.758022,24.75815 0 0 0 1.9115,-9.41115 24.758022,24.75815 0 0 0 -24.758266,-24.75814 z"
         style="fill:none;stroke:#f5f5f5;stroke-width:2;stroke-linecap:round;stroke-linejoin:round;stroke-dasharray:none;stroke-opacity:1"
         id="path16-1" />
      <text
         xml:space="preserve"
         style="font-style:normal;font-variant:normal;font-weight:normal;font-stretch:normal;font-size:20.1926px;line-height:0;font-family:'IBM Plex Sans';-inkscape-font-specification:'IBM Plex Sans, Normal';font-variant-ligatures:normal;font-variant-caps:normal;font-variant-numeric:normal;font-variant-east-asian:normal;text-align:center;text-anchor:middle;fill:#f5f5f5;fill-opacity:1;stroke:#f5f5f5;stroke-width:0.763186;stroke-linecap:round;stroke-linejoin:round;stroke-dasharray:none;stroke-dashoffset:0;stroke-opacity:1"
         x="53.365105"
         y="334.43857"
         id="text18-8"><tspan
           id="tspan18-7"
           style="font-style:normal;font-variant:normal;font-weight:normal;font-stretch:normal;font-size:20.1926px;font-family:'IBM Plex Sans';-inkscape-font-specification:'IBM Plex Sans, Normal';font-variant-ligatures:normal;font-variant-caps:normal;font-variant-numeric:normal;font-variant-east-asian:normal;fill:#f5f5f5;fill-opacity:1;stroke:#f5f5f5;stroke-width:0.763186;stroke-dasharray:none;stroke-opacity:1"
           x="53.365105"
           y="334.43857">Zeos.Systems</tspan></text>
    </g>
  </g>
</svg>
